# xmcd CD database file
# Copyright (C) 1997 Ti Kan
#
# Track frame offsets:
#  150
#  8843
#  21103
#  32805
#  36223
#  51210
#  64285
#  70860
#  83618
#  91888
#  101458
#  113020
#  122040
#  129185
#  150053
#
# Disc length: 2408 seconds
#
# Revision: 1
# Processed by: cddbd v1.4b41PL1 Copyright (c) Steve Scherf et al.
# Submitted via: CDWizzard Release:4.24
#
DISCID=ad09660f
DTITLE=Jon Wayne - Texas Funeral
DYEAR=1900
DGENRE=
TTITLE0=But I've Got Texas
TTITLE1=Texas Funeral
TTITLE2=Mr. Egyptian
TTITLE3=Texas Cyclone
TTITLE4=Texas Jailcell
TTITLE5=Workin' Man Blues
TTITLE6=Shades
TTITLE7=Texas Wine
TTITLE8=Is That Justice
TTITLE9=Texas Polka
TTITLE10=You And The Kitten
TTITLE11=Apple Schnapps
TTITLE12=Truckin'
TTITLE13=151 Owl Caricatures
TTITLE14=Texas Studio
EXTD=One of the best "novelty" country-rock records\never!  Featuring:\nJ
EXTD=on Wayne-guitar, vocal\nJimbo-drums\nEarnest Bovine-lead guitar\nBil
EXTD=ly Bob-bass\nTimmy Turlock-bass (replaced by Billy Bob as of 9/9/91)
EXTD=
EXTT0=
EXTT1=
EXTT2=
EXTT3=
EXTT4=
EXTT5=
EXTT6=
EXTT7=
EXTT8=
EXTT9=
EXTT10=
EXTT11=
EXTT12=
EXTT13=
EXTT14=
PLAYORDER=
